<svg xmlns="http://www.w3.org/2000/svg" width="600" height="660" viewBox="0 0 600 660" role="img" aria-labelledby="title desc">
<title id="title">Qwen · one DGX Spark</title>
<desc id="desc">Matched Qwen complete recipes; four concurrent requests, 262K configured context. Each workload uses a separate zero-based axis. Prose · 4 concurrent requests: Cooperative EXL3 85.993 tokens/s, Affine4 92.641 tokens/s; Code · 4 concurrent requests: Cooperative EXL3 161.084 tokens/s, Affine4 142.228 tokens/s</desc>
<rect width="100%" height="100%" rx="12" fill="#ffffff"/>
<g font-family="Arial, Helvetica, sans-serif" fill="#172c3d">
<text x="24" y="36" font-size="26" font-weight="bold">Qwen · one DGX Spark</text>
<text x="24" y="66" font-size="20" >Output over whole request group · higher is faster · Sep</text>
<text x="24" y="90" font-size="20" >29, 2026</text>
<text x="24" y="124" font-size="22" font-weight="bold">Prose · 4 concurrent requests</text>
<text x="24" y="148" font-size="18" >Output / group wall time, including prefill</text>
<text x="24" y="176" font-size="20" >Cooperative EXL3</text>
<rect x="24" y="184" width="404.166" height="25" rx="3" fill="#63778b"/>
<text x="436.1664073714243" y="204" font-size="20" font-weight="bold">85.99</text>
<text x="24" y="236" font-size="20" >Affine4</text>
<rect x="24" y="244" width="435.411" height="25" rx="3" fill="#007f79"/>
<text x="467.4113333050009" y="264" font-size="20" font-weight="bold">92.64</text>
<path d="M 24 288 H 494" stroke="#687c8c"/>
<path d="M 24 288 v 5" stroke="#687c8c"/>
<text x="24" y="314" font-size="20" text-anchor="middle">0</text>
<path d="M 259.0 288 v 5" stroke="#687c8c"/>
<text x="259.0" y="314" font-size="20" text-anchor="middle">50</text>
<path d="M 494 288 v 5" stroke="#687c8c"/>
<text x="494" y="314" font-size="20" text-anchor="middle">100</text>
<text x="259.0" y="337" font-size="18" text-anchor="middle">tokens/s</text>
<text x="24" y="372" font-size="22" font-weight="bold">Code · 4 concurrent requests</text>
<text x="24" y="396" font-size="18" >EXL3 is faster on this code workload</text>
<text x="24" y="424" font-size="20" >Cooperative EXL3</text>
<rect x="24" y="432" width="378.547" height="25" rx="3" fill="#63778b"/>
<text x="410.546673188049" y="452" font-size="20" font-weight="bold">161.08</text>
<text x="24" y="484" font-size="20" >Affine4</text>
<rect x="24" y="492" width="334.235" height="25" rx="3" fill="#007f79"/>
<text x="366.2352357406017" y="512" font-size="20" font-weight="bold">142.23</text>
<path d="M 24 536 H 494" stroke="#687c8c"/>
<path d="M 24 536 v 5" stroke="#687c8c"/>
<text x="24" y="562" font-size="20" text-anchor="middle">0</text>
<path d="M 259.0 536 v 5" stroke="#687c8c"/>
<text x="259.0" y="562" font-size="20" text-anchor="middle">100</text>
<path d="M 494 536 v 5" stroke="#687c8c"/>
<text x="494" y="562" font-size="20" text-anchor="middle">200</text>
<text x="259.0" y="585" font-size="18" text-anchor="middle">tokens/s</text>
<text x="24" y="622" font-size="18" >Median of 3 runs × 4 requests; 512-token caps, thinking</text>
<text x="24" y="646" font-size="18" >off. Runtimes differ.</text>
</g></svg>
